<?xml version="1.0" encoding="utf-8"?>
<!-- Generator: Adobe Illustrator 26.1.0, SVG Export Plug-In . SVG Version: 6.00 Build 0)  -->
<svg version="1.1" id="Layer_1" xmlns="http://www.w3.org/2000/svg" xmlns:xlink="http://www.w3.org/1999/xlink" x="0px" y="0px"
	 viewBox="0 0 2880 2880" style="enable-background:new 0 0 2880 2880;" xml:space="preserve">
<style type="text/css">
	.st0{display:none;fill:#FF5800;}
	.st1{fill:#FFFFFF;}
	.st2{display:none;}
	.st3{display:inline;}
	.st4{fill:#EBEBEB;}
	.st5{display:inline;fill:#EBEBEB;}
	.st6{fill:#FF5800;}
	.st7{display:inline;fill:#0000FF;}
	.st8{display:inline;fill:#FFFF00;}
	.st9{fill:#00FF2B;}
	.st10{display:inline;fill:#00FF00;}
	.st11{display:inline;fill:#00F4FF;}
</style>
<g id="Dark_Background">
	<rect id="Square_00000091014786131065438260000009489848338484571545_" class="st0" width="2880" height="2880"/>
	<path id="Squircle_720px" class="st0" d="M2154.39,2880H725.61C324.87,2880,0,2555.13,0,2154.39V720C0,322.35,322.35,0,720,0
		h1434.39C2555.13,0,2880,324.87,2880,725.61v1428.77C2880,2555.13,2555.13,2880,2154.39,2880z"/>
	<rect id="Rectangle" y="949" class="st0" width="2880" height="1005"/>
	<path id="Rectircle_240px" class="st0" d="M2640,1920H240c-132.55,0-240-107.45-240-240v-480c0-132.55,107.45-240,240-240h2400
		c132.55,0,240,107.45,240,240v480C2880,1812.55,2772.55,1920,2640,1920z"/>
	<g>
		<path class="st1" d="M573.34,1290.83H449.8v85.94h113.53v63.96H449.8v135.99h-78.86v-350.1h202.39V1290.83z"/>
		<path class="st1" d="M742.53,1582.82c-41.67,0-74.46-11.72-98.39-35.16s-35.81-55.09-35.64-94.97
			c0.16-41.34,12.57-73.69,37.23-97.05c24.66-23.35,58.06-35.03,100.22-35.03c41.5,0,74.05,11.64,97.66,34.91
			c23.6,23.28,35.4,54.2,35.4,92.77c0,41.34-12.17,74.1-36.5,98.27C818.17,1570.74,784.84,1582.82,742.53,1582.82z M744.97,1523.74
			c18.55,0,32.43-6.18,41.63-18.55c9.19-12.37,13.79-30.84,13.79-55.42c0-23.27-4.64-40.77-13.92-52.49s-23.28-17.58-41.99-17.58
			c-18.23,0-32.39,6.31-42.48,18.92c-10.09,12.62-15.14,30.32-15.14,53.1c0,24.09,4.84,42.11,14.53,54.08
			C711.07,1517.76,725.6,1523.74,744.97,1523.74z"/>
		<path class="st1" d="M1048.19,1582.82c-41.67,0-74.46-11.72-98.39-35.16s-35.81-55.09-35.64-94.97
			c0.16-41.34,12.57-73.69,37.23-97.05c24.66-23.35,58.06-35.03,100.22-35.03c41.5,0,74.05,11.64,97.66,34.91
			c23.6,23.28,35.4,54.2,35.4,92.77c0,41.34-12.17,74.1-36.5,98.27C1123.83,1570.74,1090.51,1582.82,1048.19,1582.82z
			 M1050.63,1523.74c18.55,0,32.43-6.18,41.63-18.55c9.19-12.37,13.79-30.84,13.79-55.42c0-23.27-4.64-40.77-13.92-52.49
			s-23.28-17.58-41.99-17.58c-18.23,0-32.39,6.31-42.48,18.92c-10.09,12.62-15.14,30.32-15.14,53.1c0,24.09,4.84,42.11,14.53,54.08
			C1016.74,1517.76,1031.26,1523.74,1050.63,1523.74z"/>
		<path class="st1" d="M1401.22,1542.29c-8.79,13.51-19.62,23.64-32.47,30.4c-12.86,6.75-27.83,10.13-44.92,10.13
			c-31.09,0-56.19-11.02-75.32-33.08c-19.13-22.05-28.69-52.86-28.69-92.41c0-41.34,10.54-74.46,31.62-99.37
			c21.08-24.9,48.54-37.35,82.4-37.35c16.11,0,29.79,2.89,41.02,8.67c11.23,5.78,20.02,14.45,26.37,26h0.98V1206.6h77.15v370.12
			h-77.15v-34.42H1401.22z M1298.19,1455.14c0,21.97,4.64,38.9,13.92,50.78c9.28,11.88,22.13,17.82,38.57,17.82
			c15.62,0,28.36-6.26,38.21-18.8c9.85-12.53,14.77-29.13,14.77-49.8v-18.8c0-16.27-4.72-29.79-14.16-40.53
			c-9.44-10.74-21.73-16.11-36.87-16.11c-17.09,0-30.44,6.71-40.04,20.14C1302.99,1413.27,1298.19,1431.7,1298.19,1455.14z"/>
		<path class="st1" d="M1622.41,1547.67h-0.98v144.04h-77.15v-364.99h77.15v37.6h0.98c9.44-14.65,20.87-25.59,34.3-32.84
			c13.43-7.24,28.77-10.86,46.02-10.86c32.23,0,57.21,11.11,74.95,33.33c17.74,22.22,26.61,52.45,26.61,90.7
			c0,41.67-10.34,75.12-31.01,100.34c-20.67,25.23-48.02,37.84-82.03,37.84c-15.14,0-28.4-2.93-39.79-8.79
			C1640.07,1568.17,1630.38,1559.38,1622.41,1547.67z M1620.21,1445.13v20.02c0,17.25,4.55,31.33,13.67,42.24
			c9.11,10.91,21.08,16.36,35.89,16.36c17.58,0,31.21-6.79,40.89-20.39c9.68-13.59,14.53-32.84,14.53-57.74
			c0-21.97-4.27-38.45-12.82-49.44s-21.36-16.48-38.45-16.48c-15.79,0-28.69,5.98-38.7,17.94S1620.21,1425.44,1620.21,1445.13z"/>
		<path class="st1" d="M1973.49,1582.82c-41.67,0-74.46-11.72-98.39-35.16s-35.81-55.09-35.64-94.97
			c0.16-41.34,12.57-73.69,37.23-97.05c24.66-23.35,58.06-35.03,100.22-35.03c41.5,0,74.05,11.64,97.66,34.91
			c23.6,23.28,35.4,54.2,35.4,92.77c0,41.34-12.17,74.1-36.5,98.27C2049.13,1570.74,2015.8,1582.82,1973.49,1582.82z
			 M1975.93,1523.74c18.55,0,32.43-6.18,41.63-18.55c9.19-12.37,13.79-30.84,13.79-55.42c0-23.27-4.64-40.77-13.92-52.49
			s-23.28-17.58-41.99-17.58c-18.23,0-32.39,6.31-42.48,18.92c-10.09,12.62-15.14,30.32-15.14,53.1c0,24.09,4.84,42.11,14.53,54.08
			C1942.03,1517.76,1956.56,1523.74,1975.93,1523.74z"/>
		<path class="st1" d="M2317.72,1390.68c-3.09-0.65-6.27-1.14-9.52-1.46c-3.26-0.32-6.84-0.49-10.74-0.49
			c-20.35,0-35.48,5.98-45.41,17.94c-9.93,11.96-14.89,28.85-14.89,50.66v119.38h-77.15v-250h77.15v46.39h0.98
			c6.02-16.93,14.53-29.62,25.51-38.09c10.99-8.46,24.45-12.7,40.41-12.7c3.58,0,7.12,0.24,10.62,0.73
			c3.5,0.49,7.12,1.14,10.86,1.95L2317.72,1390.68z"/>
		<path class="st1" d="M2515.23,1572.81c-7.81,3.26-16.56,5.74-26.25,7.45c-9.69,1.71-19.49,2.56-29.42,2.56
			c-27.34,0-47.94-6.59-61.77-19.78c-13.84-13.18-20.75-32.88-20.75-59.08V1383.6h-40.53v-56.88h40.53v-60.55l76.9-21.97v82.52
			h56.15v56.88h-56.15v115.48c0,9.61,1.87,16.56,5.62,20.87c3.74,4.31,9.77,6.47,18.07,6.47c4.07,0,7.97-0.53,11.72-1.59
			c3.74-1.06,7.32-2.4,10.74-4.03L2515.23,1572.81z"/>
	</g>
</g>
<g id="Other_Texts" class="st2">
	<g class="st3">
		<path class="st1" d="M502.26,1352.96c-2.36-1.06-4.48-1.83-6.35-2.32c-1.87-0.49-3.99-0.73-6.35-0.73
			c-5.13,0-9.05,1.61-11.78,4.82c-2.73,3.22-4.09,7.79-4.09,13.73v14.89h28.56v28.44h-28.56v96.56h-38.45v-96.56h-21v-28.44h21
			v-17.09c0-13.75,4.64-24.84,13.92-33.26s21.28-12.63,36.01-12.63c5.62,0,10.29,0.35,14.04,1.04c3.74,0.69,7.73,1.65,11.96,2.87
			L502.26,1352.96z"/>
		<path class="st1" d="M580.38,1511.41c-20.83,0-37.23-5.86-49.19-17.58s-17.9-27.55-17.82-47.49c0.08-20.67,6.29-36.84,18.62-48.52
			c12.33-11.68,29.03-17.52,50.11-17.52c20.75,0,37.03,5.82,48.83,17.46c11.8,11.64,17.7,27.1,17.7,46.39
			c0,20.67-6.08,37.05-18.25,49.13C618.2,1505.37,601.54,1511.41,580.38,1511.41z M581.6,1481.87c9.28,0,16.21-3.09,20.81-9.28
			c4.6-6.18,6.9-15.42,6.9-27.71c0-11.64-2.32-20.39-6.96-26.25s-11.64-8.79-21-8.79c-9.12,0-16.2,3.16-21.24,9.46
			c-5.05,6.31-7.57,15.16-7.57,26.55c0,12.04,2.42,21.06,7.26,27.04C564.65,1478.88,571.92,1481.87,581.6,1481.87z"/>
		<path class="st1" d="M733.21,1511.41c-20.83,0-37.23-5.86-49.19-17.58s-17.9-27.55-17.82-47.49c0.08-20.67,6.29-36.84,18.62-48.52
			c12.33-11.68,29.03-17.52,50.11-17.52c20.75,0,37.03,5.82,48.83,17.46c11.8,11.64,17.7,27.1,17.7,46.39
			c0,20.67-6.08,37.05-18.25,49.13C771.03,1505.37,754.37,1511.41,733.21,1511.41z M734.43,1481.87c9.28,0,16.21-3.09,20.81-9.28
			c4.6-6.18,6.9-15.42,6.9-27.71c0-11.64-2.32-20.39-6.96-26.25s-11.64-8.79-21-8.79c-9.12,0-16.2,3.16-21.24,9.46
			c-5.05,6.31-7.57,15.16-7.57,26.55c0,12.04,2.42,21.06,7.26,27.04C717.49,1478.88,724.75,1481.87,734.43,1481.87z"/>
		<path class="st1" d="M909.73,1491.15c-4.39,6.76-9.81,11.82-16.24,15.2c-6.43,3.38-13.92,5.07-22.46,5.07
			c-15.54,0-28.1-5.51-37.66-16.54c-9.56-11.03-14.34-26.43-14.34-46.2c0-20.67,5.27-37.23,15.81-49.68
			c10.54-12.45,24.27-18.68,41.2-18.68c8.06,0,14.89,1.45,20.51,4.33c5.62,2.89,10.01,7.22,13.18,13h0.49v-74.34h38.57v185.06
			h-38.57v-17.21H909.73z M858.21,1447.57c0,10.99,2.32,19.45,6.96,25.39c4.64,5.94,11.07,8.91,19.29,8.91
			c7.81,0,14.18-3.13,19.1-9.4c4.92-6.27,7.38-14.57,7.38-24.9v-9.4c0-8.14-2.36-14.89-7.08-20.26c-4.72-5.37-10.86-8.06-18.43-8.06
			c-8.54,0-15.22,3.36-20.02,10.07C860.61,1426.63,858.21,1435.85,858.21,1447.57z"/>
		<path class="st1" d="M1020.32,1493.83h-0.49v72.02h-38.57v-182.5h38.57v18.8h0.49c4.72-7.32,10.44-12.8,17.15-16.42
			c6.71-3.62,14.38-5.43,23.01-5.43c16.11,0,28.6,5.55,37.48,16.66c8.87,11.11,13.31,26.23,13.31,45.35
			c0,20.83-5.17,37.56-15.5,50.17c-10.34,12.62-24.01,18.92-41.02,18.92c-7.57,0-14.2-1.46-19.9-4.39
			C1029.15,1504.09,1024.31,1499.69,1020.32,1493.83z M1019.22,1442.56v10.01c0,8.63,2.28,15.67,6.84,21.12
			c4.56,5.45,10.54,8.18,17.94,8.18c8.79,0,15.6-3.4,20.45-10.19c4.84-6.79,7.26-16.42,7.26-28.87c0-10.99-2.14-19.23-6.41-24.72
			s-10.68-8.24-19.23-8.24c-7.89,0-14.34,2.99-19.35,8.97S1019.22,1432.72,1019.22,1442.56z"/>
		<path class="st1" d="M1195.86,1511.41c-20.83,0-37.23-5.86-49.19-17.58s-17.9-27.55-17.82-47.49
			c0.08-20.67,6.29-36.84,18.62-48.52c12.33-11.68,29.03-17.52,50.11-17.52c20.75,0,37.03,5.82,48.83,17.46
			c11.8,11.64,17.7,27.1,17.7,46.39c0,20.67-6.08,37.05-18.25,49.13C1233.68,1505.37,1217.02,1511.41,1195.86,1511.41z
			 M1197.08,1481.87c9.28,0,16.21-3.09,20.81-9.28c4.6-6.18,6.9-15.42,6.9-27.71c0-11.64-2.32-20.39-6.96-26.25s-11.64-8.79-21-8.79
			c-9.12,0-16.2,3.16-21.24,9.46c-5.05,6.31-7.57,15.16-7.57,26.55c0,12.04,2.42,21.06,7.26,27.04
			C1180.13,1478.88,1187.39,1481.87,1197.08,1481.87z"/>
		<path class="st1" d="M1367.98,1415.34c-1.55-0.32-3.13-0.57-4.76-0.73c-1.63-0.16-3.42-0.24-5.37-0.24
			c-10.17,0-17.74,2.99-22.71,8.97c-4.96,5.98-7.45,14.42-7.45,25.33v59.69h-38.57v-125h38.57v23.19h0.49
			c3.01-8.46,7.26-14.81,12.76-19.04c5.49-4.23,12.23-6.35,20.2-6.35c1.79,0,3.56,0.12,5.31,0.37c1.75,0.24,3.56,0.57,5.43,0.98
			L1367.98,1415.34z"/>
		<path class="st1" d="M1466.73,1506.41c-3.91,1.63-8.28,2.87-13.12,3.72c-4.84,0.86-9.75,1.28-14.71,1.28
			c-13.67,0-23.97-3.3-30.88-9.89c-6.92-6.59-10.38-16.44-10.38-29.54v-60.18h-20.26v-28.44h20.26v-30.27l38.45-10.99v41.26h28.08
			v28.44h-28.08v57.74c0,4.8,0.93,8.28,2.81,10.44c1.87,2.16,4.88,3.23,9.03,3.23c2.03,0,3.99-0.26,5.86-0.79
			c1.87-0.53,3.66-1.2,5.37-2.01L1466.73,1506.41z"/>
		<path class="st1" d="M1503.6,1511.41c-6.59,0-12.02-1.97-16.3-5.92c-4.27-3.95-6.41-8.97-6.41-15.08s2.14-11.13,6.41-15.08
			c4.27-3.95,9.7-5.92,16.3-5.92s12.02,1.97,16.3,5.92c4.27,3.95,6.41,8.97,6.41,15.08s-2.12,11.13-6.35,15.08
			C1515.72,1509.44,1510.27,1511.41,1503.6,1511.41z"/>
		<path class="st1" d="M1654.11,1500.55c-6.59,3.74-13.12,6.49-19.59,8.24c-6.47,1.75-13.53,2.62-21.18,2.62
			c-21.16,0-37.64-5.82-49.44-17.46c-11.8-11.64-17.7-26.65-17.7-45.04c0-21.24,6.29-37.98,18.86-50.23
			c12.57-12.25,29.24-18.37,49.99-18.37c7.89,0,14.77,0.75,20.63,2.26c5.86,1.51,11.8,3.93,17.82,7.26l-14.28,25.88
			c-3.74-2.03-7.38-3.52-10.92-4.46c-3.54-0.93-7.43-1.4-11.66-1.4c-9.77,0-17.42,3.17-22.95,9.52c-5.54,6.35-8.3,15.34-8.3,26.98
			c0,11.15,3.09,19.86,9.28,26.12c6.18,6.27,13.67,9.4,22.46,9.4c2.36,0,5.59-0.55,9.71-1.65c4.11-1.1,8.28-2.87,12.51-5.31
			L1654.11,1500.55z"/>
		<path class="st1" d="M1733.21,1511.41c-20.83,0-37.23-5.86-49.19-17.58s-17.9-27.55-17.82-47.49
			c0.08-20.67,6.29-36.84,18.62-48.52c12.33-11.68,29.03-17.52,50.11-17.52c20.75,0,37.03,5.82,48.83,17.46
			c11.8,11.64,17.7,27.1,17.7,46.39c0,20.67-6.08,37.05-18.25,49.13C1771.03,1505.37,1754.37,1511.41,1733.21,1511.41z
			 M1734.43,1481.87c9.28,0,16.21-3.09,20.81-9.28c4.6-6.18,6.9-15.42,6.9-27.71c0-11.64-2.32-20.39-6.96-26.25s-11.64-8.79-21-8.79
			c-9.12,0-16.2,3.16-21.24,9.46c-5.05,6.31-7.57,15.16-7.57,26.55c0,12.04,2.42,21.06,7.26,27.04
			C1717.49,1478.88,1724.75,1481.87,1734.43,1481.87z"/>
		<path class="st1" d="M2024.96,1508.36h-38.45v-71.29c0-9.11-1.67-15.93-5-20.45c-3.34-4.52-8.34-6.78-15.01-6.78
			c-6.35,0-11.52,2.73-15.5,8.18c-3.99,5.45-5.98,12.25-5.98,20.39v69.95h-38.57v-72.02c0-8.87-1.63-15.5-4.88-19.9
			c-3.26-4.39-8.18-6.59-14.77-6.59s-11.86,2.61-15.81,7.81c-3.95,5.21-5.92,12.29-5.92,21.24v69.46h-38.57v-125h38.57v19.53h0.49
			c3.99-6.67,9.58-12.1,16.78-16.3c7.2-4.19,15.08-6.29,23.62-6.29c8.87,0,16.32,1.93,22.34,5.8c6.02,3.87,10.66,9.7,13.92,17.52
			c4.8-7.81,10.7-13.65,17.7-17.52c7-3.86,15.09-5.8,24.29-5.8c13.59,0,23.78,4.19,30.58,12.57c6.79,8.38,10.19,20.96,10.19,37.72
			V1508.36z"/>
		<path class="st1" d="M2073.18,1511.41c-6.59,0-12.02-1.97-16.3-5.92c-4.27-3.95-6.41-8.97-6.41-15.08s2.14-11.13,6.41-15.08
			c4.27-3.95,9.71-5.92,16.3-5.92s12.02,1.97,16.3,5.92c4.27,3.95,6.41,8.97,6.41,15.08s-2.12,11.13-6.35,15.08
			C2085.3,1509.44,2079.85,1511.41,2073.18,1511.41z"/>
		<path class="st1" d="M2321.71,1508.36h-38.45v-71.29c0-9.11-1.67-15.93-5-20.45c-3.34-4.52-8.34-6.78-15.01-6.78
			c-6.35,0-11.52,2.73-15.5,8.18c-3.99,5.45-5.98,12.25-5.98,20.39v69.95h-38.57v-72.02c0-8.87-1.63-15.5-4.88-19.9
			c-3.26-4.39-8.18-6.59-14.77-6.59s-11.86,2.61-15.81,7.81c-3.95,5.21-5.92,12.29-5.92,21.24v69.46h-38.57v-125h38.57v19.53h0.49
			c3.99-6.67,9.58-12.1,16.78-16.3c7.2-4.19,15.08-6.29,23.62-6.29c8.87,0,16.32,1.93,22.34,5.8c6.02,3.87,10.66,9.7,13.92,17.52
			c4.8-7.81,10.7-13.65,17.7-17.52c7-3.86,15.09-5.8,24.29-5.8c13.59,0,23.78,4.19,30.58,12.57c6.79,8.38,10.19,20.96,10.19,37.72
			V1508.36z"/>
		<path class="st1" d="M2471.25,1383.36l-55.91,148.19c-4.23,11.15-10.62,19.86-19.17,26.12c-8.54,6.27-18.84,9.4-30.88,9.4
			c-3.91,0-7.65-0.2-11.23-0.61c-3.58-0.41-7.08-1.02-10.5-1.83l6.35-28.32c1.87,0.65,3.7,1.12,5.49,1.4
			c1.79,0.29,3.78,0.43,5.98,0.43c3.82,0,7.18-0.94,10.07-2.81c2.89-1.87,5.23-4.84,7.02-8.91l7.81-18.31l-50.78-124.76h42.72
			l23.32,76.05c0.73,2.36,1.38,4.92,1.95,7.69c0.57,2.77,1.06,5.78,1.46,9.03h0.49c0.41-2.44,0.93-5,1.59-7.69
			c0.65-2.69,1.46-5.62,2.44-8.79l23.56-76.29H2471.25z"/>
	</g>
	<g class="st3">
		<path class="st1" d="M255.36,2426.71c-3.24,1.23-6.37,2.12-9.41,2.67c-3.04,0.55-6.32,0.83-9.84,0.83c-9.6,0-17.15-2.3-22.66-6.91
			c-5.51-4.61-8.27-11.19-8.27-19.77c0-8.03,3.01-14.7,9.02-20c6.01-5.3,13.95-7.96,23.8-7.96c3.29,0,6.24,0.2,8.83,0.59
			c2.59,0.39,5.29,1.03,8.1,1.92l-4.08,9.62c-2.12-0.66-4.15-1.14-6.1-1.44c-1.95-0.29-4.05-0.44-6.32-0.44
			c-5.04,0-9.41,1.52-13.1,4.55c-3.69,3.03-5.54,7.14-5.54,12.32c0,5.35,1.61,9.54,4.83,12.56c3.22,3.02,7.64,4.53,13.25,4.53
			c1.46,0,3.31-0.2,5.56-0.61c2.25-0.41,4.58-1.07,6.98-2.01L255.36,2426.71z"/>
		<path class="st1" d="M290.37,2401.21c-0.54-0.1-1.1-0.17-1.68-0.22c-0.57-0.05-1.2-0.07-1.89-0.07c-3.58,0-6.24,0.9-7.99,2.71
			c-1.75,1.8-2.62,4.35-2.62,7.64v18.01h-13.58v-37.72h13.58v7h0.17c1.06-2.55,2.56-4.47,4.49-5.75c1.93-1.28,4.3-1.92,7.11-1.92
			c0.63,0,1.25,0.04,1.87,0.11c0.62,0.07,1.25,0.17,1.91,0.29L290.37,2401.21z"/>
		<path class="st1" d="M334.23,2429.28h-12.85v-5.42h-0.17c-1.46,2.11-3.29,3.7-5.48,4.75c-2.19,1.06-4.68,1.58-7.45,1.58
			c-3.81,0-7.08-1-9.82-3c-2.74-2-4.1-4.81-4.1-8.42c0-3.49,1.35-6.34,4.06-8.55c2.71-2.21,6.94-3.65,12.69-4.31l10.35-1.18v-0.74
			c0-1.79-0.67-3.15-2.02-4.07c-1.35-0.92-3.21-1.38-5.58-1.38c-1.8,0-3.82,0.26-6.04,0.77c-2.22,0.52-4.48,1.34-6.77,2.47
			l-4.6-6.89c3.01-1.5,5.99-2.58,8.96-3.26c2.96-0.67,6.19-1.01,9.69-1.01c6.56,0,11.38,1.34,14.48,4.02
			c3.09,2.68,4.64,6.71,4.64,12.08V2429.28z M321.47,2413.96v-2.54l-7.99,0.88c-2.21,0.25-3.86,0.82-4.96,1.71
			c-1.1,0.9-1.65,2.03-1.65,3.41c0,1.33,0.54,2.41,1.61,3.26c1.07,0.85,2.53,1.27,4.36,1.27c2.55,0,4.63-0.76,6.23-2.27
			C320.67,2418.18,321.47,2416.27,321.47,2413.96z"/>
		<path class="st1" d="M386.86,2391.56l-16.37,37.72h-15.47l-15.59-37.72h14.52l7.65,23.25c0.43,1.33,0.77,2.55,1.03,3.67
			c0.26,1.12,0.41,2.13,0.47,3.04h0.17c0.09-0.86,0.26-1.83,0.54-2.91c0.27-1.08,0.62-2.27,1.05-3.57l7.82-23.47H386.86z"/>
		<path class="st1" d="M432.19,2413.74h-28.7c0.23,2.73,1.3,4.75,3.2,6.08c1.9,1.33,4.53,1.99,7.88,1.99c1.26,0,3-0.33,5.22-0.98
			c2.22-0.65,4.37-1.68,6.47-3.08l6.01,6.59c-3.01,2.04-6.1,3.52-9.28,4.46c-3.18,0.93-6.69,1.4-10.53,1.4
			c-7.1,0-12.62-1.69-16.54-5.07c-3.92-3.38-5.89-8.09-5.89-14.13c0-6.02,2.08-10.92,6.23-14.7c4.15-3.78,9.41-5.67,15.77-5.67
			c6.1,0,10.98,1.58,14.65,4.73c3.67,3.16,5.5,7.74,5.5,13.76V2413.74z M419.6,2406.59c0-2.92-0.64-5-1.91-6.25
			c-1.27-1.24-3.19-1.86-5.74-1.86c-2.18,0-4.06,0.72-5.65,2.17s-2.56,3.43-2.9,5.93H419.6z"/>
		<path class="st1" d="M491.73,2382.39c-0.83-0.32-1.58-0.55-2.23-0.7c-0.66-0.15-1.4-0.22-2.23-0.22c-1.8,0-3.19,0.49-4.15,1.46
			c-0.96,0.97-1.44,2.35-1.44,4.15v4.49h10.05v8.58h-10.05v29.14h-13.53v-29.14h-7.39v-8.58h7.39v-5.16c0-4.15,1.63-7.5,4.9-10.04
			s7.49-3.81,12.67-3.81c1.98,0,3.62,0.1,4.94,0.31c1.32,0.21,2.72,0.5,4.21,0.87L491.73,2382.39z"/>
		<path class="st1" d="M519.23,2430.21c-7.33,0-13.1-1.77-17.31-5.3c-4.21-3.54-6.3-8.31-6.27-14.33
			c0.03-6.24,2.21-11.12,6.55-14.64c4.34-3.52,10.22-5.29,17.64-5.29c7.3,0,13.03,1.76,17.18,5.27c4.15,3.51,6.23,8.18,6.23,14
			c0,6.24-2.14,11.18-6.42,14.83C532.54,2428.38,526.67,2430.21,519.23,2430.21z M519.65,2421.29c3.27,0,5.71-0.93,7.33-2.8
			c1.62-1.87,2.43-4.65,2.43-8.36c0-3.51-0.82-6.15-2.45-7.92c-1.63-1.77-4.1-2.65-7.39-2.65c-3.21,0-5.7,0.95-7.48,2.86
			c-1.78,1.9-2.66,4.57-2.66,8.01c0,3.63,0.85,6.35,2.56,8.16C513.69,2420.39,516.25,2421.29,519.65,2421.29z"/>
		<path class="st1" d="M579.8,2401.21c-0.54-0.1-1.1-0.17-1.68-0.22c-0.57-0.05-1.2-0.07-1.89-0.07c-3.58,0-6.24,0.9-7.99,2.71
			c-1.75,1.8-2.62,4.35-2.62,7.64v18.01h-13.58v-37.72h13.58v7h0.17c1.06-2.55,2.56-4.47,4.49-5.75c1.93-1.28,4.3-1.92,7.11-1.92
			c0.63,0,1.25,0.04,1.87,0.11c0.62,0.07,1.25,0.17,1.91,0.29L579.8,2401.21z"/>
		<path class="st1" d="M638.53,2382.39c-0.83-0.32-1.58-0.55-2.23-0.7c-0.66-0.15-1.4-0.22-2.23-0.22c-1.8,0-3.19,0.49-4.15,1.46
			c-0.96,0.97-1.44,2.35-1.44,4.15v4.49h10.05v8.58h-10.05v29.14h-13.53v-29.14h-7.39v-8.58h7.39v-5.16c0-4.15,1.63-7.5,4.9-10.04
			s7.49-3.81,12.67-3.81c1.98,0,3.62,0.1,4.94,0.31c1.32,0.21,2.72,0.5,4.21,0.87L638.53,2382.39z"/>
		<path class="st1" d="M666.02,2430.21c-7.33,0-13.1-1.77-17.31-5.3c-4.21-3.54-6.3-8.31-6.27-14.33
			c0.03-6.24,2.21-11.12,6.55-14.64c4.34-3.52,10.22-5.29,17.64-5.29c7.3,0,13.03,1.76,17.18,5.27c4.15,3.51,6.23,8.18,6.23,14
			c0,6.24-2.14,11.18-6.42,14.83C679.33,2428.38,673.47,2430.21,666.02,2430.21z M666.45,2421.29c3.27,0,5.71-0.93,7.33-2.8
			c1.62-1.87,2.43-4.65,2.43-8.36c0-3.51-0.82-6.15-2.45-7.92c-1.63-1.77-4.1-2.65-7.39-2.65c-3.21,0-5.7,0.95-7.48,2.86
			c-1.78,1.9-2.66,4.57-2.66,8.01c0,3.63,0.85,6.35,2.56,8.16C660.49,2420.39,663.04,2421.29,666.45,2421.29z"/>
		<path class="st1" d="M719.81,2430.21c-7.33,0-13.1-1.77-17.31-5.3c-4.21-3.54-6.3-8.31-6.27-14.33
			c0.03-6.24,2.21-11.12,6.55-14.64c4.34-3.52,10.22-5.29,17.64-5.29c7.3,0,13.03,1.76,17.18,5.27c4.15,3.51,6.23,8.18,6.23,14
			c0,6.24-2.14,11.18-6.42,14.83C733.12,2428.38,727.26,2430.21,719.81,2430.21z M720.24,2421.29c3.27,0,5.71-0.93,7.33-2.8
			c1.62-1.87,2.43-4.65,2.43-8.36c0-3.51-0.82-6.15-2.45-7.92c-1.63-1.77-4.1-2.65-7.39-2.65c-3.21,0-5.7,0.95-7.48,2.86
			c-1.78,1.9-2.66,4.57-2.66,8.01c0,3.63,0.85,6.35,2.56,8.16C714.28,2420.39,716.83,2421.29,720.24,2421.29z"/>
		<path class="st1" d="M781.93,2424.09c-1.55,2.04-3.45,3.57-5.71,4.59c-2.26,1.02-4.9,1.53-7.9,1.53c-5.47,0-9.89-1.66-13.25-4.99
			c-3.37-3.33-5.05-7.98-5.05-13.94c0-6.24,1.85-11.24,5.56-14.99c3.71-3.76,8.54-5.64,14.5-5.64c2.84,0,5.24,0.44,7.22,1.31
			c1.98,0.87,3.52,2.18,4.64,3.92h0.17v-22.44h13.58v55.85H782.1v-5.19H781.93z M763.8,2410.94c0,3.32,0.82,5.87,2.45,7.66
			s3.89,2.69,6.79,2.69c2.75,0,4.99-0.95,6.72-2.84c1.73-1.89,2.6-4.4,2.6-7.52v-2.84c0-2.46-0.83-4.49-2.49-6.12
			c-1.66-1.62-3.82-2.43-6.49-2.43c-3.01,0-5.36,1.01-7.05,3.04C764.65,2404.62,763.8,2407.4,763.8,2410.94z"/>
		<path class="st1" d="M813.34,2430.21c-2.32,0-4.23-0.6-5.74-1.79c-1.5-1.19-2.26-2.71-2.26-4.55c0-1.84,0.75-3.36,2.26-4.55
			c1.5-1.19,3.42-1.79,5.74-1.79s4.23,0.6,5.74,1.79c1.5,1.19,2.26,2.71,2.26,4.55c0,1.84-0.75,3.36-2.23,4.55
			C817.6,2429.61,815.69,2430.21,813.34,2430.21z"/>
	</g>
</g>
<g id="Light_Background" class="st2">
	<rect x="0" class="st4" width="2880" height="2880"/>
	<path id="Squircle_720px_00000026863077033442667290000001166380463096235404_" class="st4" d="M2154.39,2880H725.61
		C324.87,2880,0,2555.13,0,2154.39V720C0,322.35,322.35,0,720,0h1434.39C2555.13,0,2880,324.87,2880,725.61v1428.77
		C2880,2555.13,2555.13,2880,2154.39,2880z"/>
	<path id="Rectircle_240px_00000033359423167024052110000000513358525363679670_" class="st5" d="M2640,1920H240
		c-132.55,0-240-107.45-240-240v-480c0-132.55,107.45-240,240-240h2400c132.55,0,240,107.45,240,240v480
		C2880,1812.55,2772.55,1920,2640,1920z"/>
	<g class="st3">
		<path class="st6" d="M573.34,1290.83H449.8v85.94h113.53v63.96H449.8v135.99h-78.86v-350.1h202.39V1290.83z"/>
		<path class="st6" d="M742.53,1582.82c-41.67,0-74.46-11.72-98.39-35.16s-35.81-55.09-35.64-94.97
			c0.16-41.34,12.57-73.69,37.23-97.05c24.66-23.35,58.06-35.03,100.22-35.03c41.5,0,74.05,11.64,97.66,34.91
			c23.6,23.28,35.4,54.2,35.4,92.77c0,41.34-12.17,74.1-36.5,98.27C818.17,1570.74,784.84,1582.82,742.53,1582.82z M744.97,1523.74
			c18.55,0,32.43-6.18,41.63-18.55c9.19-12.37,13.79-30.84,13.79-55.42c0-23.27-4.64-40.77-13.92-52.49s-23.28-17.58-41.99-17.58
			c-18.23,0-32.39,6.31-42.48,18.92c-10.09,12.62-15.14,30.32-15.14,53.1c0,24.09,4.84,42.11,14.53,54.08
			C711.07,1517.76,725.6,1523.74,744.97,1523.74z"/>
		<path class="st6" d="M1048.19,1582.82c-41.67,0-74.46-11.72-98.39-35.16s-35.81-55.09-35.64-94.97
			c0.16-41.34,12.57-73.69,37.23-97.05c24.66-23.35,58.06-35.03,100.22-35.03c41.5,0,74.05,11.64,97.66,34.91
			c23.6,23.28,35.4,54.2,35.4,92.77c0,41.34-12.17,74.1-36.5,98.27C1123.83,1570.74,1090.51,1582.82,1048.19,1582.82z
			 M1050.63,1523.74c18.55,0,32.43-6.18,41.63-18.55c9.19-12.37,13.79-30.84,13.79-55.42c0-23.27-4.64-40.77-13.92-52.49
			s-23.28-17.58-41.99-17.58c-18.23,0-32.39,6.31-42.48,18.92c-10.09,12.62-15.14,30.32-15.14,53.1c0,24.09,4.84,42.11,14.53,54.08
			C1016.74,1517.76,1031.26,1523.74,1050.63,1523.74z"/>
		<path class="st6" d="M1401.22,1542.29c-8.79,13.51-19.62,23.64-32.47,30.4c-12.86,6.75-27.83,10.13-44.92,10.13
			c-31.09,0-56.19-11.02-75.32-33.08c-19.13-22.05-28.69-52.86-28.69-92.41c0-41.34,10.54-74.46,31.62-99.37
			c21.08-24.9,48.54-37.35,82.4-37.35c16.11,0,29.79,2.89,41.02,8.67c11.23,5.78,20.02,14.45,26.37,26h0.98V1206.6h77.15v370.12
			h-77.15v-34.42H1401.22z M1298.19,1455.14c0,21.97,4.64,38.9,13.92,50.78c9.28,11.88,22.13,17.82,38.57,17.82
			c15.62,0,28.36-6.26,38.21-18.8c9.85-12.53,14.77-29.13,14.77-49.8v-18.8c0-16.27-4.72-29.79-14.16-40.53
			c-9.44-10.74-21.73-16.11-36.87-16.11c-17.09,0-30.44,6.71-40.04,20.14C1302.99,1413.27,1298.19,1431.7,1298.19,1455.14z"/>
		<path class="st6" d="M1622.41,1547.67h-0.98v144.04h-77.15v-364.99h77.15v37.6h0.98c9.44-14.65,20.87-25.59,34.3-32.84
			c13.43-7.24,28.77-10.86,46.02-10.86c32.23,0,57.21,11.11,74.95,33.33c17.74,22.22,26.61,52.45,26.61,90.7
			c0,41.67-10.34,75.12-31.01,100.34c-20.67,25.23-48.02,37.84-82.03,37.84c-15.14,0-28.4-2.93-39.79-8.79
			C1640.07,1568.17,1630.38,1559.38,1622.41,1547.67z M1620.21,1445.13v20.02c0,17.25,4.55,31.33,13.67,42.24
			c9.11,10.91,21.08,16.36,35.89,16.36c17.58,0,31.21-6.79,40.89-20.39c9.68-13.59,14.53-32.84,14.53-57.74
			c0-21.97-4.27-38.45-12.82-49.44s-21.36-16.48-38.45-16.48c-15.79,0-28.69,5.98-38.7,17.94S1620.21,1425.44,1620.21,1445.13z"/>
		<path class="st6" d="M1973.49,1582.82c-41.67,0-74.46-11.72-98.39-35.16s-35.81-55.09-35.64-94.97
			c0.16-41.34,12.57-73.69,37.23-97.05c24.66-23.35,58.06-35.03,100.22-35.03c41.5,0,74.05,11.64,97.66,34.91
			c23.6,23.28,35.4,54.2,35.4,92.77c0,41.34-12.17,74.1-36.5,98.27C2049.13,1570.74,2015.8,1582.82,1973.49,1582.82z
			 M1975.93,1523.74c18.55,0,32.43-6.18,41.63-18.55c9.19-12.37,13.79-30.84,13.79-55.42c0-23.27-4.64-40.77-13.92-52.49
			s-23.28-17.58-41.99-17.58c-18.23,0-32.39,6.31-42.48,18.92c-10.09,12.62-15.14,30.32-15.14,53.1c0,24.09,4.84,42.11,14.53,54.08
			C1942.03,1517.76,1956.56,1523.74,1975.93,1523.74z"/>
		<path class="st6" d="M2317.72,1390.68c-3.09-0.65-6.27-1.14-9.52-1.46c-3.26-0.32-6.84-0.49-10.74-0.49
			c-20.35,0-35.48,5.98-45.41,17.94c-9.93,11.96-14.89,28.85-14.89,50.66v119.38h-77.15v-250h77.15v46.39h0.98
			c6.02-16.93,14.53-29.62,25.51-38.09c10.99-8.46,24.45-12.7,40.41-12.7c3.58,0,7.12,0.24,10.62,0.73
			c3.5,0.49,7.12,1.14,10.86,1.95L2317.72,1390.68z"/>
		<path class="st6" d="M2515.23,1572.81c-7.81,3.26-16.56,5.74-26.25,7.45c-9.69,1.71-19.49,2.56-29.42,2.56
			c-27.34,0-47.94-6.59-61.77-19.78c-13.84-13.18-20.75-32.88-20.75-59.08V1383.6h-40.53v-56.88h40.53v-60.55l76.9-21.97v82.52
			h56.15v56.88h-56.15v115.48c0,9.61,1.87,16.56,5.62,20.87c3.74,4.31,9.77,6.47,18.07,6.47c4.07,0,7.97-0.53,11.72-1.59
			c3.74-1.06,7.32-2.4,10.74-4.03L2515.23,1572.81z"/>
	</g>
</g>
<g id="Guidelines" class="st2">
</g>
<g id="_x34__Circles" class="st2">
	<circle class="st7" cx="720" cy="720" r="720"/>
	<circle class="st8" cx="2160" cy="720" r="720"/>
	<circle class="st8" cx="720" cy="2160" r="720"/>
	<circle class="st8" cx="2160" cy="2160" r="720"/>
</g>
<g id="Spacing_Guide" class="st2">
	<rect y="1384" class="st9" width="375" height="768"/>
	<rect x="2505" y="578" class="st9" width="375" height="768"/>
	
		<rect id="Bottom_00000080167610337826011530000008913830720413411483_" x="894" y="1526" transform="matrix(6.123234e-17 -1 1 6.123234e-17 -689 2848)" class="st7" width="371" height="485"/>
	<rect id="Bottom" x="417" y="1583" class="st10" width="485" height="485"/>
	
		<rect id="Top_00000111150844404201653830000011431323139222849701_" x="1501" y="892" transform="matrix(6.123234e-17 -1 1 6.123234e-17 552 2821)" class="st7" width="371" height="485"/>
	<rect id="Top" x="1725" y="835" class="st10" width="485" height="485"/>
	<rect x="0" y="1017" class="st7" width="371" height="485"/>
	<rect x="2509" y="1347" class="st7" width="371" height="485"/>
</g>
<g id="Rectangle_Guide" class="st2">
	
		<rect id="Squircle_720px_00000032620612831756969140000010356535167911826347_" x="1440" y="960" class="st10" width="480" height="480"/>
	
		<rect id="Squircle_720px_00000083799797426600254680000004350776445994053288_" x="960" y="1440" class="st10" width="480" height="480"/>
	
		<rect id="Squircle_720px_00000170968144694746291240000012407212775557259158_" x="1920" y="1440" class="st10" width="480" height="480"/>
	
		<rect id="Squircle_720px_00000131340012247713499970000009844146879140920209_" x="2400" y="960" class="st10" width="480" height="480"/>
	
		<rect id="Squircle_720px_00000145753347013349243330000006401215738708668593_" x="480" y="960" class="st10" width="480" height="480"/>
	
		<rect id="Squircle_720px_00000098221825663250140390000001149113948227622553_" x="0" y="1440" class="st10" width="480" height="480"/>
	<circle class="st11" cx="240" cy="1200" r="240"/>
</g>
<g>
</g>
<g>
</g>
<g>
</g>
<g>
</g>
<g>
</g>
<g>
</g>
<g>
</g>
<g>
</g>
<g>
</g>
<g>
</g>
<g>
</g>
<g>
</g>
<g>
</g>
<g>
</g>
<g>
</g>
</svg>
