<?xml version="1.0" standalone="no"?>
<!DOCTYPE svg PUBLIC "-//W3C//DTD SVG 20010904//EN"
 "http://www.w3.org/TR/2001/REC-SVG-20010904/DTD/svg10.dtd">
<svg version="1.0" xmlns="http://www.w3.org/2000/svg"
 width="512.000000pt" height="512.000000pt" viewBox="0 0 512.000000 512.000000"
 preserveAspectRatio="xMidYMid meet">

<g transform="translate(0.000000,512.000000) scale(0.100000,-0.100000)"
fill="#000000" stroke="none">
<path d="M1130 5105 c-546 -76 -969 -453 -1088 -970 -42 -182 -43 -231 -39
-1635 3 -1223 5 -1353 20 -1430 28 -137 64 -242 122 -357 185 -367 524 -617
935 -690 99 -17 188 -18 1480 -18 1292 0 1381 1 1480 18 548 97 960 509 1057
1057 17 99 18 188 18 1480 0 1292 -1 1381 -18 1480 -97 544 -493 945 -1047
1057 -78 15 -205 17 -1455 19 -1090 2 -1389 0 -1465 -11z m1505 -2460 l0 -330
-72 -3 -73 -3 0 27 0 27 -22 -21 c-68 -63 -198 -51 -256 23 -54 68 -64 197
-23 289 48 110 188 159 273 96 l28 -21 0 126 0 126 73 -3 72 -3 0 -330z
m-1616 291 c7 -8 11 -36 9 -63 l-3 -48 -107 -3 -108 -3 0 -69 0 -69 98 -3 97
-3 0 -60 0 -60 -97 -3 -97 -3 -3 -117 -3 -117 -75 0 -75 0 -3 309 c-2 241 1
311 10 318 7 4 88 8 179 8 132 0 169 -3 178 -14z m3351 -95 l0 -70 48 -3 47
-3 0 -55 0 -55 -47 -3 -48 -3 0 -113 c0 -123 5 -133 55 -120 21 5 25 1 38 -43
8 -26 11 -52 7 -57 -5 -5 -39 -11 -77 -13 -52 -3 -76 0 -103 14 -57 29 -70 69
-70 210 l0 122 -32 3 c-33 3 -33 4 -36 61 l-3 57 35 0 35 0 3 52 3 52 55 17
c91 28 90 29 90 -50z m-2921 -90 c130 -67 161 -266 57 -379 -43 -49 -94 -67
-186 -67 -72 0 -92 4 -130 25 -24 14 -58 44 -74 68 -26 37 -31 54 -34 117 -2
41 1 89 8 110 22 68 88 126 165 146 47 13 150 2 194 -20z m549 -3 c91 -47 134
-169 102 -288 -17 -65 -90 -133 -159 -150 -71 -17 -149 -9 -208 21 -124 64
-152 260 -54 370 71 80 215 101 319 47z m1125 5 c51 -29 87 -111 87 -196 0
-92 -15 -139 -62 -192 -61 -69 -155 -86 -222 -40 l-36 24 0 -119 0 -120 -75 0
-75 0 0 330 0 331 72 -3 c68 -3 73 -5 78 -28 4 -18 8 -21 14 -11 5 7 27 22 50
32 49 23 121 20 169 -8z m514 -2 c80 -40 117 -106 117 -206 1 -159 -106 -255
-269 -242 -141 11 -219 96 -218 238 0 116 58 196 163 226 59 17 159 9 207 -16z
m343 -12 l0 -31 31 31 c26 26 38 31 80 31 l50 0 -6 -57 c-4 -32 -10 -61 -14
-65 -3 -4 -26 -8 -50 -10 -35 -2 -48 -9 -65 -31 -18 -25 -21 -45 -24 -163 l-4
-135 -71 3 -72 3 -3 215 c-1 118 0 220 2 227 4 9 28 13 76 13 l70 0 0 -31z"/>
<path d="M2351 2641 c-44 -44 -49 -146 -9 -196 27 -35 85 -35 118 0 24 26 38
102 26 149 -15 60 -94 88 -135 47z"/>
<path d="M1259 2631 c-25 -26 -29 -37 -29 -86 0 -59 19 -109 45 -119 9 -3 34
-6 55 -6 29 0 43 6 58 25 42 53 36 167 -11 200 -36 25 -84 19 -118 -14z"/>
<path d="M1805 2636 c-44 -44 -46 -147 -4 -192 29 -31 100 -33 128 -5 40 40
40 154 0 197 -31 33 -91 33 -124 0z"/>
<path d="M2929 2647 c-28 -21 -39 -54 -39 -115 0 -81 25 -114 83 -110 34 2 45
9 65 38 20 30 23 44 20 99 -3 52 -8 67 -27 82 -26 21 -78 24 -102 6z"/>
<path d="M3449 2631 c-26 -27 -29 -36 -29 -96 0 -57 3 -69 25 -90 30 -31 92
-34 125 -7 27 22 40 87 30 144 -15 80 -94 105 -151 49z"/>
</g>
</svg>
