<?xml version="1.0" standalone="no"?>
<!DOCTYPE svg PUBLIC "-//W3C//DTD SVG 20010904//EN"
 "http://www.w3.org/TR/2001/REC-SVG-20010904/DTD/svg10.dtd">
<svg version="1.0" xmlns="http://www.w3.org/2000/svg"
 width="9127.000000pt" height="2404.000000pt" viewBox="0 0 9127.000000 2404.000000"
 preserveAspectRatio="xMidYMid meet">

<g transform="translate(0.000000,2404.000000) scale(0.100000,-0.100000)"
fill="#000000" stroke="none">
<path d="M44640 18640 c0 -3047 0 -3100 -19 -3100 -14 0 -35 26 -72 88 -362
607 -888 1007 -1584 1207 -677 194 -1574 202 -2331 20 -772 -185 -1426 -554
-1999 -1129 -721 -723 -1197 -1639 -1429 -2751 -163 -781 -205 -1788 -110
-2650 164 -1495 729 -2636 1685 -3403 582 -467 1261 -738 2074 -828 310 -34
820 -29 1130 12 1088 142 1935 658 2546 1552 118 172 109 224 109 -618 l0
-720 1605 0 1605 0 0 7710 0 7710 -1605 0 -1605 0 0 -3100z m-1834 -4121 c496
-48 910 -246 1242 -594 343 -359 536 -767 628 -1325 15 -90 18 -200 22 -765 4
-691 -2 -841 -39 -1100 -54 -374 -140 -664 -284 -960 -263 -540 -661 -929
-1144 -1119 -343 -135 -792 -166 -1218 -85 -241 46 -530 169 -722 306 -110 80
-274 233 -366 343 -275 330 -460 767 -554 1310 -89 517 -86 1240 9 1806 178
1059 704 1808 1457 2074 153 54 376 101 533 113 107 8 335 6 436 -4z"/>
<path d="M1680 13610 l0 -7290 1640 0 1640 0 0 2835 0 2835 2365 0 2365 0 0
1330 0 1330 -2365 0 -2365 0 0 1790 0 1790 2575 0 2575 0 0 1335 0 1335 -4215
0 -4215 0 0 -7290z"/>
<path d="M86863 19712 l-1593 -456 0 -1263 0 -1263 -845 0 -845 0 0 -1180 0
-1180 845 0 845 0 3 -2712 c3 -2531 4 -2723 21 -2863 74 -629 226 -1088 494
-1494 183 -278 462 -546 756 -726 428 -262 911 -409 1581 -482 228 -25 922
-25 1185 0 374 35 746 98 1065 179 269 68 650 200 642 222 -2 6 -143 488 -312
1071 -169 583 -311 1063 -315 1068 -3 4 -54 -13 -112 -37 -343 -144 -663 -203
-952 -177 -219 19 -357 61 -488 148 -178 117 -280 297 -345 610 -15 71 -17
306 -20 2636 l-3 2557 1170 0 1170 0 0 1180 0 1180 -1170 0 -1170 0 0 1720 c0
946 -3 1720 -7 1719 -5 -1 -725 -206 -1600 -457z"/>
<path d="M16935 16979 c-1607 -64 -2892 -563 -3854 -1494 -1050 -1018 -1559
-2471 -1500 -4285 51 -1571 566 -2812 1552 -3738 990 -929 2323 -1391 4017
-1392 1777 -1 3163 503 4180 1520 749 749 1217 1690 1410 2833 103 609 127
1338 64 1962 -138 1378 -689 2498 -1644 3338 -465 409 -1029 728 -1658 936
-756 252 -1612 359 -2567 320z m750 -2479 c636 -96 1078 -361 1397 -834 260
-388 407 -877 470 -1566 16 -177 16 -820 0 -1015 -63 -751 -221 -1284 -503
-1705 -410 -611 -1072 -896 -1973 -849 -646 33 -1131 226 -1500 595 -166 166
-286 339 -401 577 -206 425 -310 920 -334 1582 -43 1183 219 2065 784 2631
347 348 792 550 1335 603 161 16 564 5 725 -19z"/>
<path d="M29675 16979 c-1607 -64 -2892 -563 -3854 -1494 -1050 -1018 -1559
-2471 -1500 -4285 51 -1571 566 -2812 1552 -3738 990 -929 2323 -1391 4017
-1392 1777 -1 3163 503 4180 1520 749 749 1217 1690 1410 2833 103 609 127
1338 64 1962 -138 1378 -689 2498 -1644 3338 -465 409 -1029 728 -1658 936
-756 252 -1612 359 -2567 320z m750 -2479 c636 -96 1078 -361 1397 -834 260
-388 407 -877 470 -1566 16 -177 16 -820 0 -1015 -63 -751 -221 -1284 -503
-1705 -410 -611 -1072 -896 -1973 -849 -646 33 -1131 226 -1500 595 -166 166
-286 339 -401 577 -206 425 -310 920 -334 1582 -43 1183 219 2065 784 2631
347 348 792 550 1335 603 161 16 564 5 725 -19z"/>
<path d="M56887 16980 c-964 -57 -1781 -402 -2421 -1020 -213 -206 -429 -465
-595 -712 -41 -62 -57 -78 -76 -78 l-25 0 0 780 0 780 -1600 0 -1600 0 0
-7600 0 -7600 1600 0 1600 0 0 3000 0 3000 24 0 c19 0 38 -19 87 -87 384 -531
872 -918 1435 -1137 447 -173 904 -245 1484 -233 303 7 484 23 743 67 1186
200 2159 852 2863 1920 662 1004 984 2235 984 3760 0 1770 -457 3138 -1355
4059 -566 580 -1273 932 -2125 1055 -294 43 -737 63 -1023 46z m-512 -2479
c461 -70 796 -235 1082 -534 342 -359 540 -872 620 -1612 25 -231 25 -937 0
-1185 -61 -609 -174 -1043 -373 -1442 -398 -798 -1036 -1200 -1904 -1200 -194
0 -299 10 -464 43 -568 115 -1049 509 -1336 1094 -112 229 -184 454 -229 715
-42 247 -46 337 -46 1030 1 706 5 793 55 1086 61 354 180 688 342 960 330 554
813 914 1380 1029 185 37 281 44 523 40 152 -3 260 -10 350 -24z"/>
<path d="M68225 16979 c-1607 -64 -2892 -563 -3854 -1494 -1050 -1018 -1559
-2471 -1500 -4285 51 -1571 566 -2812 1552 -3738 990 -929 2323 -1391 4017
-1392 1777 -1 3163 503 4180 1520 749 749 1217 1690 1410 2833 103 609 127
1338 64 1962 -138 1378 -689 2498 -1644 3338 -465 409 -1029 728 -1658 936
-756 252 -1612 359 -2567 320z m750 -2479 c636 -96 1078 -361 1397 -834 260
-388 407 -877 470 -1566 16 -177 16 -820 0 -1015 -63 -751 -221 -1284 -503
-1705 -410 -611 -1072 -896 -1973 -849 -646 33 -1131 226 -1500 595 -166 166
-286 339 -401 577 -206 425 -310 920 -334 1582 -43 1183 219 2065 784 2631
347 348 792 550 1335 603 161 16 564 5 725 -19z"/>
<path d="M82030 16910 c-615 -34 -1135 -228 -1568 -588 -394 -326 -724 -826
-957 -1449 -23 -63 -30 -73 -51 -73 l-24 0 0 965 0 965 -1600 0 -1600 0 0
-5205 0 -5205 1600 0 1599 0 4 2647 c3 1856 7 2679 15 2753 35 323 78 564 136
763 300 1018 962 1560 2026 1656 168 16 581 13 761 -4 137 -13 374 -48 406
-59 7 -3 14 10 17 32 12 75 316 2647 316 2673 0 27 -1 27 -137 53 -228 43
-402 66 -580 76 -92 5 -181 9 -198 8 -16 0 -91 -4 -165 -8z"/>
</g>
</svg>
